<svg width="40" height="40" viewBox="0 0 40 40" fill="none" xmlns="http://www.w3.org/2000/svg">
  <path d="M20 4C11.1634 4 4 11.1634 4 20C4 28.8366 11.1634 36 20 36C28.8366 36 36 28.8366 36 20C36 11.1634 28.8366 4 20 4ZM20 6C27.7552 6 34 12.2448 34 20C34 27.7552 27.7552 34 20 34C12.2448 34 6 27.7552 6 20C6 12.2448 12.2448 6 20 6Z" fill="currentColor"/>
  <path d="M20 8L13.7157 14.2843L20 20.5686L26.2843 14.2843L20 8Z" fill="currentColor"/>
  <path d="M12.3431 15.6569L8 20L12.3431 24.3431L16.6863 20L12.3431 15.6569Z" fill="currentColor"/>
  <path d="M20 21.4314L13.7157 27.7157L20 34L26.2843 27.7157L20 21.4314Z" fill="currentColor"/>
  <path d="M27.6569 15.6569L23.3137 20L27.6569 24.3431L32 20L27.6569 15.6569Z" fill="currentColor"/>
</svg>
